<svg width="17" height="22" viewBox="0 0 17 22" fill="none" xmlns="http://www.w3.org/2000/svg">
<path d="M0 19.3004C0 20.3887 0.815848 21.2717 1.82143 21.2717H15.1786C16.1842 21.2717 17 20.3887 17 19.3004V8.12948H0V19.3004ZM12.1429 11.2508C12.1429 10.9797 12.3478 10.7579 12.5982 10.7579H14.1161C14.3665 10.7579 14.5714 10.9797 14.5714 11.2508V12.8935C14.5714 13.1646 14.3665 13.3864 14.1161 13.3864H12.5982C12.3478 13.3864 12.1429 13.1646 12.1429 12.8935V11.2508ZM12.1429 16.5076C12.1429 16.2366 12.3478 16.0148 12.5982 16.0148H14.1161C14.3665 16.0148 14.5714 16.2366 14.5714 16.5076V18.1504C14.5714 18.4215 14.3665 18.6433 14.1161 18.6433H12.5982C12.3478 18.6433 12.1429 18.4215 12.1429 18.1504V16.5076ZM7.28571 11.2508C7.28571 10.9797 7.49062 10.7579 7.74107 10.7579H9.25893C9.50938 10.7579 9.71429 10.9797 9.71429 11.2508V12.8935C9.71429 13.1646 9.50938 13.3864 9.25893 13.3864H7.74107C7.49062 13.3864 7.28571 13.1646 7.28571 12.8935V11.2508ZM7.28571 16.5076C7.28571 16.2366 7.49062 16.0148 7.74107 16.0148H9.25893C9.50938 16.0148 9.71429 16.2366 9.71429 16.5076V18.1504C9.71429 18.4215 9.50938 18.6433 9.25893 18.6433H7.74107C7.49062 18.6433 7.28571 18.4215 7.28571 18.1504V16.5076ZM2.42857 11.2508C2.42857 10.9797 2.63348 10.7579 2.88393 10.7579H4.40179C4.65223 10.7579 4.85714 10.9797 4.85714 11.2508V12.8935C4.85714 13.1646 4.65223 13.3864 4.40179 13.3864H2.88393C2.63348 13.3864 2.42857 13.1646 2.42857 12.8935V11.2508ZM2.42857 16.5076C2.42857 16.2366 2.63348 16.0148 2.88393 16.0148H4.40179C4.65223 16.0148 4.85714 16.2366 4.85714 16.5076V18.1504C4.85714 18.4215 4.65223 18.6433 4.40179 18.6433H2.88393C2.63348 18.6433 2.42857 18.4215 2.42857 18.1504V16.5076ZM15.1786 2.87259H13.3571V0.901252C13.3571 0.539841 13.0839 0.244141 12.75 0.244141H11.5357C11.2018 0.244141 10.9286 0.539841 10.9286 0.901252V2.87259H6.07143V0.901252C6.07143 0.539841 5.79821 0.244141 5.46429 0.244141H4.25C3.91607 0.244141 3.64286 0.539841 3.64286 0.901252V2.87259H1.82143C0.815848 2.87259 0 3.75558 0 4.84392V6.81525H17V4.84392C17 3.75558 16.1842 2.87259 15.1786 2.87259Z" fill="#D9D9D9"/>
</svg>
