<svg width="25" height="17" viewBox="0 0 25 17" fill="none" xmlns="http://www.w3.org/2000/svg">
<path d="M24.8565 10.1609L21.7131 15.5567C21.4685 15.9766 21.1182 16.3249 20.6972 16.5671C20.2763 16.8092 19.7992 16.9366 19.3138 16.9366H1.95421C1.15026 16.9366 0.649349 16.0633 1.05443 15.368L4.19783 9.97225C4.44246 9.55234 4.79272 9.20396 5.21372 8.96184C5.63471 8.71972 6.11173 8.59231 6.59722 8.59232H23.9568C24.7607 8.59232 25.2616 9.46555 24.8565 10.1609ZM6.59722 7.2016H20.8333V5.11554C20.8333 3.96342 19.9006 3.02947 18.75 3.02947H11.8056L9.02778 0.248047H2.08333C0.932726 0.248047 0 1.182 0 2.33411V14.4179L2.99813 9.2715C3.74193 7.99474 5.12105 7.2016 6.59722 7.2016Z" fill="#D9D9D9"/>
</svg>
