<svg width="40" height="40" viewBox="0 0 40 40" fill="none" xmlns="http://www.w3.org/2000/svg">
<path d="M40 20C40 31.0484 31.0484 40 20 40C8.95161 40 0 31.0484 0 20C0 8.95161 8.95161 0 20 0C31.0484 0 40 8.95161 40 20ZM16.4516 10.6452V20H10.7339C9.87097 20 9.43548 21.0484 10.0484 21.6532L19.3145 30.871C19.6935 31.25 20.2984 31.25 20.6774 30.871L29.9435 21.6532C30.5564 21.0403 30.121 20 29.2581 20H23.5484V10.6452C23.5484 10.1129 23.1129 9.67742 22.5806 9.67742H17.4194C16.8871 9.67742 16.4516 10.1129 16.4516 10.6452Z" fill="white"/>
</svg>
