<svg width="25" height="26" viewBox="0 0 25 26" fill="none" xmlns="http://www.w3.org/2000/svg">
<g clip-path="url(#clip0_424_6070)">
<path d="M14.0625 6.80469V0.164062H4.29688C3.64746 0.164062 3.125 0.686523 3.125 1.33594V23.9922C3.125 24.6416 3.64746 25.1641 4.29688 25.1641H20.7031C21.3525 25.1641 21.875 24.6416 21.875 23.9922V7.97656H15.2344C14.5898 7.97656 14.0625 7.44922 14.0625 6.80469ZM17.7954 17.125L13.0874 21.7979C12.7627 22.1206 12.2383 22.1206 11.9136 21.7979L7.20557 17.125C6.70996 16.6333 7.05762 15.7891 7.75488 15.7891H10.9375V11.8828C10.9375 11.4512 11.2871 11.1016 11.7188 11.1016H13.2812C13.7129 11.1016 14.0625 11.4512 14.0625 11.8828V15.7891H17.2451C17.9424 15.7891 18.29 16.6333 17.7954 17.125ZM21.5332 5.29102L16.7529 0.505859C16.5332 0.286133 16.2354 0.164062 15.9229 0.164062H15.625V6.41406H21.875V6.11621C21.875 5.80859 21.7529 5.51074 21.5332 5.29102Z" fill="white"/>
</g>
<defs>
<clipPath id="clip0_424_6070">
<rect width="25" height="25" fill="white" transform="translate(0 0.164062)"/>
</clipPath>
</defs>
</svg>
