<svg width="61" height="46" viewBox="0 0 61 46" fill="none" xmlns="http://www.w3.org/2000/svg">
<path d="M55.2812 46H5.71875C2.56033 46 0 43.4257 0 40.25V5.75C0 2.57432 2.56033 0 5.71875 0H55.2812C58.4397 0 61 2.57432 61 5.75V40.25C61 43.4257 58.4397 46 55.2812 46ZM13.3438 6.70833C9.65897 6.70833 6.67188 9.71175 6.67188 13.4167C6.67188 17.1216 9.65897 20.125 13.3438 20.125C17.0285 20.125 20.0156 17.1216 20.0156 13.4167C20.0156 9.71175 17.0285 6.70833 13.3438 6.70833ZM7.625 38.3333H53.375V24.9167L42.9484 14.4331C42.3901 13.8718 41.4849 13.8718 40.9265 14.4331L24.7812 30.6667L18.1672 24.0164C17.6089 23.4551 16.7036 23.4551 16.1452 24.0164L7.625 32.5833V38.3333Z" fill="#FFFEFE"/>
</svg>
