<svg width="17" height="23" viewBox="0 0 17 23" fill="none" xmlns="http://www.w3.org/2000/svg">
<path d="M8.05286 11.5045C7.83151 10.7857 7.83594 9.39766 7.96432 9.39766C8.3362 9.39766 8.30078 11.0553 8.05286 11.5045ZM7.9776 13.6248C7.63672 14.5322 7.21172 15.5699 6.72031 16.4414C7.53047 16.127 8.44687 15.6687 9.50495 15.4576C8.94271 15.0264 8.4026 14.4064 7.9776 13.6248ZM3.81172 19.2311C3.81172 19.267 4.39609 18.9885 5.35677 17.4252C5.06016 17.7082 4.06849 18.5258 3.81172 19.2311ZM10.9792 7.1875H17V21.9219C17 22.5193 16.5263 23 15.9375 23H1.0625C0.473698 23 0 22.5193 0 21.9219V1.07812C0 0.480664 0.473698 0 1.0625 0H9.91667V6.10938C9.91667 6.70234 10.3948 7.1875 10.9792 7.1875ZM10.625 14.9051C9.73958 14.357 9.15078 13.6023 8.73464 12.4883C8.93385 11.6572 9.24818 10.3949 9.00911 9.6043C8.80104 8.28359 7.13203 8.41387 6.89297 9.29883C6.67161 10.1209 6.87526 11.2799 7.25156 12.7578C6.73802 13.9977 5.98099 15.6598 5.44531 16.6121C5.44089 16.6121 5.44089 16.6166 5.43646 16.6166C4.23672 17.241 2.17813 18.6156 3.0237 19.6713C3.27161 19.9812 3.73203 20.1205 3.97552 20.1205C4.76797 20.1205 5.55599 19.3119 6.68047 17.3443C7.82266 16.9625 9.07552 16.4863 10.1779 16.3021C11.1385 16.8322 12.263 17.1781 13.0112 17.1781C14.3039 17.1781 14.3924 15.7406 13.8833 15.2285C13.268 14.6176 11.4794 14.7928 10.625 14.9051ZM16.6901 4.7168L12.3516 0.314453C12.1523 0.112305 11.8823 0 11.599 0H11.3333V5.75H17V5.47598C17 5.19297 16.8893 4.91895 16.6901 4.7168ZM13.4096 16.1854C13.5911 16.0641 13.299 15.6508 11.5148 15.7811C13.1573 16.4908 13.4096 16.1854 13.4096 16.1854Z" fill="#9B9B9B"/>
</svg>
