<svg width="25" height="26" viewBox="0 0 25 26" fill="none" xmlns="http://www.w3.org/2000/svg">
<g clip-path="url(#clip0_424_6061)">
<path d="M24.6582 21.7803L19.79 16.9121C19.5703 16.6924 19.2725 16.5703 18.96 16.5703H18.1641C19.5117 14.8467 20.3125 12.6787 20.3125 10.3203C20.3125 4.70996 15.7666 0.164062 10.1562 0.164062C4.5459 0.164062 0 4.70996 0 10.3203C0 15.9307 4.5459 20.4766 10.1562 20.4766C12.5146 20.4766 14.6826 19.6758 16.4062 18.3281V19.124C16.4062 19.4365 16.5283 19.7344 16.748 19.9541L21.6162 24.8223C22.0752 25.2812 22.8174 25.2812 23.2715 24.8223L24.6533 23.4404C25.1123 22.9814 25.1123 22.2393 24.6582 21.7803ZM10.1562 16.5703C6.7041 16.5703 3.90625 13.7773 3.90625 10.3203C3.90625 6.86816 6.69922 4.07031 10.1562 4.07031C13.6084 4.07031 16.4062 6.86328 16.4062 10.3203C16.4062 13.7725 13.6133 16.5703 10.1562 16.5703Z" fill="white"/>
</g>
<defs>
<clipPath id="clip0_424_6061">
<rect width="25" height="25" fill="white" transform="translate(0 0.164062)"/>
</clipPath>
</defs>
</svg>
