<svg width="28" height="24" viewBox="0 0 28 24" fill="none" xmlns="http://www.w3.org/2000/svg">
<path d="M25.1219 5.98123C25.1397 6.24372 25.1397 6.50626 25.1397 6.76875C25.1397 14.775 19.3656 24 8.81221 24C5.56092 24 2.54063 23.0062 0 21.2813C0.461947 21.3375 0.906066 21.3563 1.38579 21.3563C4.06849 21.3563 6.53808 20.4 8.51017 18.7688C5.98732 18.7125 3.87309 16.9688 3.14465 14.5687C3.50001 14.625 3.85532 14.6625 4.22845 14.6625C4.74367 14.6625 5.25893 14.5874 5.7386 14.4563C3.10916 13.8937 1.13701 11.4562 1.13701 8.51249V8.43752C1.90095 8.88752 2.78935 9.16877 3.73091 9.20622C2.18521 8.1187 1.17256 6.26247 1.17256 4.16246C1.17256 3.03748 1.45677 2.00623 1.95427 1.10622C4.77916 4.78122 9.02539 7.18118 13.7868 7.44372C13.698 6.99372 13.6446 6.52502 13.6446 6.05626C13.6446 2.71872 16.203 0 19.3832 0C21.0355 0 22.5279 0.731248 23.5761 1.9125C24.8731 1.65001 26.1167 1.14374 27.2183 0.450003C26.7918 1.85628 25.8858 3.03754 24.6954 3.78748C25.8503 3.6563 26.9696 3.31872 28 2.85002C27.2184 4.04997 26.2412 5.11868 25.1219 5.98123Z" fill="#8E8E8E"/>
</svg>
