<svg width="87" height="88" viewBox="0 0 87 88" fill="none" xmlns="http://www.w3.org/2000/svg">
<path d="M44.8425 0.8883L43.9496 0L22.482 21.9198L23.3749 22.8081L44.8425 0.8883Z" fill="#2B318C"/>
<path d="M46.6013 2.56799L45.7084 1.67969L24.2408 23.5995L25.1337 24.4878L46.6013 2.56799Z" fill="#2B318C"/>
<path d="M48.3601 4.37463L47.4672 3.48633L25.9996 25.4062L26.8925 26.2945L48.3601 4.37463Z" fill="#2B318C"/>
<path d="M50.182 6.11877L49.2891 5.23047L27.8215 27.1503L28.7144 28.0386L50.182 6.11877Z" fill="#2B318C"/>
<path d="M51.9408 7.92541L51.0479 7.03711L29.5802 28.9569L30.4732 29.8452L51.9408 7.92541Z" fill="#2B318C"/>
<path d="M53.6996 9.73205L52.8067 8.84375L31.3391 30.7636L32.232 31.6519L53.6996 9.73205Z" fill="#2B318C"/>
<path d="M55.4561 11.4117L54.5632 10.5234L33.0956 32.4433L33.9885 33.3316L55.4561 11.4117Z" fill="#2B318C"/>
<path d="M57.2149 13.2184L56.322 12.3301L34.8543 34.2499L35.7473 35.1382L57.2149 13.2184Z" fill="#2B318C"/>
<path d="M59.0368 14.9606L58.1439 14.0723L36.6762 35.9921L37.5692 36.8804L59.0368 14.9606Z" fill="#2B318C"/>
<path d="M60.7955 16.7692L59.9026 15.8809L38.435 37.8007L39.3279 38.689L60.7955 16.7692Z" fill="#2B318C"/>
<path d="M62.6175 18.5113L61.7246 17.623L40.257 39.5429L41.1499 40.4312L62.6175 18.5113Z" fill="#2B318C"/>
<path d="M42.1599 86.7972L43.0528 87.6855L64.5204 65.7657L63.6275 64.8774L42.1599 86.7972Z" fill="#2B318C"/>
<path d="M40.4326 85.0082L41.3255 85.8965L62.7931 63.9766L61.9002 63.0883L40.4326 85.0082Z" fill="#2B318C"/>
<path d="M38.5781 83.223L39.471 84.1113L60.9386 62.1915L60.0457 61.3032L38.5781 83.223Z" fill="#2B318C"/>
<path d="M36.8508 81.434L37.7437 82.3223L59.2113 60.4024L58.3184 59.5141L36.8508 81.434Z" fill="#2B318C"/>
<path d="M35.0605 79.7113L35.9534 80.5996L57.421 58.6798L56.5281 57.7915L35.0605 79.7113Z" fill="#2B318C"/>
<path d="M33.3333 77.9222L34.2262 78.8105L55.6938 56.8907L54.8009 56.0024L33.3333 77.9222Z" fill="#2B318C"/>
<path d="M31.5429 76.1976L32.4358 77.0859L53.9034 55.1661L53.0105 54.2778L31.5429 76.1976Z" fill="#2B318C"/>
<path d="M29.7514 74.3461L30.6443 75.2344L52.1119 53.3145L51.219 52.4262L29.7514 74.3461Z" fill="#2B318C"/>
<path d="M27.9611 72.6234L28.854 73.5117L50.3216 51.5919L49.4287 50.7036L27.9611 72.6234Z" fill="#2B318C"/>
<path d="M26.1707 70.8988L27.0636 71.7871L48.5312 49.8673L47.6383 48.979L26.1707 70.8988Z" fill="#2B318C"/>
<path d="M24.4424 69.1097L25.3353 69.998L46.8029 48.0782L45.91 47.1899L24.4424 69.1097Z" fill="#2B318C"/>
<path d="M44.8425 0.8883L43.9496 0L22.482 21.9198L23.3749 22.8081L44.8425 0.8883Z" fill="white"/>
<path d="M46.6013 2.56799L45.7084 1.67969L24.2408 23.5995L25.1337 24.4878L46.6013 2.56799Z" fill="white"/>
<path d="M48.3601 4.37463L47.4672 3.48633L25.9996 25.4062L26.8925 26.2945L48.3601 4.37463Z" fill="white"/>
<path d="M50.182 6.11877L49.2891 5.23047L27.8215 27.1503L28.7144 28.0386L50.182 6.11877Z" fill="white"/>
<path d="M51.9408 7.92541L51.0479 7.03711L29.5802 28.9569L30.4732 29.8452L51.9408 7.92541Z" fill="white"/>
<path d="M53.6996 9.73205L52.8067 8.84375L31.3391 30.7636L32.232 31.6519L53.6996 9.73205Z" fill="white"/>
<path d="M55.4561 11.4117L54.5632 10.5234L33.0956 32.4433L33.9885 33.3316L55.4561 11.4117Z" fill="white"/>
<path d="M57.2149 13.2184L56.322 12.3301L34.8543 34.2499L35.7473 35.1382L57.2149 13.2184Z" fill="white"/>
<path d="M59.0368 14.9606L58.1439 14.0723L36.6762 35.9921L37.5692 36.8804L59.0368 14.9606Z" fill="white"/>
<path d="M60.7955 16.7692L59.9026 15.8809L38.435 37.8007L39.3279 38.689L60.7955 16.7692Z" fill="white"/>
<path d="M62.6175 18.5113L61.7246 17.623L40.257 39.5429L41.1499 40.4312L62.6175 18.5113Z" fill="white"/>
<path d="M42.1599 86.7972L43.0528 87.6855L64.5204 65.7657L63.6275 64.8774L42.1599 86.7972Z" fill="white"/>
<path d="M40.4326 85.0082L41.3255 85.8965L62.7931 63.9766L61.9002 63.0883L40.4326 85.0082Z" fill="white"/>
<path d="M38.5781 83.223L39.471 84.1113L60.9386 62.1915L60.0457 61.3032L38.5781 83.223Z" fill="white"/>
<path d="M36.8508 81.434L37.7437 82.3223L59.2113 60.4024L58.3184 59.5141L36.8508 81.434Z" fill="white"/>
<path d="M35.0605 79.7113L35.9534 80.5996L57.421 58.6798L56.5281 57.7915L35.0605 79.7113Z" fill="white"/>
<path d="M33.3333 77.9222L34.2262 78.8105L55.6938 56.8907L54.8009 56.0024L33.3333 77.9222Z" fill="white"/>
<path d="M31.5429 76.1976L32.4358 77.0859L53.9034 55.1661L53.0105 54.2778L31.5429 76.1976Z" fill="white"/>
<path d="M29.7514 74.3461L30.6443 75.2344L52.1119 53.3145L51.219 52.4262L29.7514 74.3461Z" fill="white"/>
<path d="M27.9611 72.6234L28.854 73.5117L50.3216 51.5919L49.4287 50.7036L27.9611 72.6234Z" fill="white"/>
<path d="M26.1707 70.8988L27.0636 71.7871L48.5312 49.8673L47.6383 48.979L26.1707 70.8988Z" fill="white"/>
<path d="M24.4424 69.1097L25.3353 69.998L46.8029 48.0782L45.91 47.1899L24.4424 69.1097Z" fill="white"/>
<path d="M86.1186 45.1851L87 44.2852L65.2512 22.6487L64.3699 23.5486L86.1186 45.1851Z" fill="white"/>
<path d="M84.3835 46.9312L85.2649 46.0312L63.5161 24.3948L62.6347 25.2947L84.3835 46.9312Z" fill="white"/>
<path d="M82.5841 48.7437L83.4655 47.8438L61.7168 26.2073L60.8354 27.1072L82.5841 48.7437Z" fill="white"/>
<path d="M80.849 50.4898L81.7304 49.5898L59.9817 27.9534L59.1003 28.8533L80.849 50.4898Z" fill="white"/>
<path d="M79.1127 52.3648L79.9941 51.4648L58.2453 29.8284L57.364 30.7283L79.1127 52.3648Z" fill="white"/>
<path d="M77.3776 54.1109L78.259 53.2109L56.5102 31.5745L55.6289 32.4744L77.3776 54.1109Z" fill="white"/>
<path d="M75.6414 55.8589L76.5227 54.959L54.774 33.3225L53.8926 34.2224L75.6414 55.8589Z" fill="white"/>
<path d="M73.842 57.6695L74.7234 56.7695L52.9746 35.1331L52.0933 36.033L73.842 57.6695Z" fill="white"/>
<path d="M72.1068 59.4175L72.9882 58.5176L51.2394 36.8811L50.3581 37.781L72.1068 59.4175Z" fill="white"/>
<path d="M70.3717 61.2906L71.2531 60.3906L49.5043 38.7541L48.623 39.6541L70.3717 61.2906Z" fill="white"/>
<path d="M68.6355 63.0386L69.5168 62.1387L47.7681 40.5022L46.8867 41.4021L68.6355 63.0386Z" fill="white"/>
<path d="M0.881369 42.479L0 43.3789L21.7488 65.0154L22.6301 64.1155L0.881369 42.479Z" fill="white"/>
<path d="M2.64803 40.6469L1.76666 41.5469L23.5154 63.1834L24.3968 62.2834L2.64803 40.6469Z" fill="white"/>
<path d="M4.35384 38.8833L3.47247 39.7832L25.2212 61.4197L26.1026 60.5198L4.35384 38.8833Z" fill="white"/>
<path d="M6.12166 37.0512L5.2403 37.9512L26.9891 59.5877L27.8704 58.6877L6.12166 37.0512Z" fill="white"/>
<path d="M7.88949 35.3501L7.00812 36.25L28.7569 57.8865L29.6382 56.9865L7.88949 35.3501Z" fill="white"/>
<path d="M9.65731 33.52L8.77594 34.4199L30.5247 56.0564L31.4061 55.1565L9.65731 33.52Z" fill="white"/>
<path d="M11.362 31.7524L10.4807 32.6523L32.2294 54.2888L33.1108 53.3889L11.362 31.7524Z" fill="white"/>
<path d="M13.1299 29.9243L12.2485 30.8242L33.9973 52.4607L34.8786 51.5608L13.1299 29.9243Z" fill="white"/>
<path d="M14.8965 28.0923L14.0151 28.9922L35.7639 50.6287L36.6453 49.7287L14.8965 28.0923Z" fill="white"/>
<path d="M16.6655 26.3911L15.7841 27.291L37.5328 48.9275L38.4142 48.0276L16.6655 26.3911Z" fill="white"/>
<path d="M18.4333 24.561L17.5519 25.4609L39.3007 47.0974L40.182 46.1975L18.4333 24.561Z" fill="white"/>
<path d="M64.5246 22.1816H22.3157V64.7226H64.5246V22.1816Z" fill="#2B318C"/>
<path d="M60.0433 65.9879L59.6849 65.3557C59.416 64.9944 58.7887 64.6331 58.1614 64.3622C57.1756 63.9106 56.0106 63.3687 55.4729 62.1042C54.8456 60.8397 55.2041 59.4849 55.3833 58.5817L55.7418 56.9559C56.2795 54.6979 56.7276 52.2592 56.6379 50.0012C56.6379 49.64 56.6379 49.2787 56.5483 48.9174C56.4587 47.8335 56.3691 46.7497 56.6379 45.5755V45.3949C56.6379 45.3046 56.7276 45.1239 56.7276 45.0336C56.7276 45.0336 56.5483 44.9433 56.3691 44.853H56.2795C55.8314 44.853 55.3833 45.0336 54.9352 45.2142C54.9352 45.2142 53.7702 46.0271 53.1429 45.6658C52.6052 45.3046 53.2326 43.7691 53.2326 43.7691C53.2326 43.6788 53.1429 43.6788 53.0533 43.5885C53.0533 43.5885 53.0533 43.5885 52.9637 43.6788C52.8741 43.7691 52.6949 43.9498 52.426 44.1304C52.0676 44.311 51.7091 44.4014 51.3506 44.4014C50.7233 44.4014 50.0064 44.1304 49.4687 43.6788C49.0206 43.3175 48.7518 42.8659 48.4829 42.4143C48.3933 42.324 48.3933 42.2337 48.3037 42.1434C47.6764 41.1498 46.7802 40.4273 45.7049 40.066C45.5256 39.9757 45.2568 39.8853 45.0775 39.8853C44.6295 39.795 44.271 39.6144 43.8229 39.4337C42.3891 38.8015 41.4929 37.537 40.5968 36.5435C40.1487 36.0016 39.7006 35.3693 39.1629 34.9177C38.8941 34.6468 38.5356 34.4661 38.2668 34.1952C37.8187 33.8339 37.281 33.4726 36.8329 33.021C35.7575 31.8468 35.2198 30.4017 35.5783 29.1372C36.116 27.2405 38.0875 26.4276 39.0733 26.0663C40.0591 25.705 41.0448 25.3438 42.1202 25.3438H42.2995C45.2568 25.3438 47.4075 27.6018 49.3791 30.0404L55.0249 37.1757C55.2041 37.4467 55.4729 37.7177 55.6522 37.8983C55.8314 37.9886 56.0106 38.1693 56.2795 38.2596L60.1329 40.2466L60.2226 40.066C60.8499 38.3499 62.5526 37.1757 64.5241 37.0854L65.8683 36.9951V66.1686H60.0433V65.9879Z" fill="white" stroke="white" stroke-miterlimit="10"/>
<path d="M64.5233 38.1689C63.1791 38.2592 61.8349 39.0721 61.3868 40.3366C61.2075 40.6979 61.1179 41.2398 60.7595 41.4205C60.401 41.6011 59.9529 41.4204 59.5049 41.2398C58.2502 40.6076 56.906 39.9753 55.6514 39.2528C55.3825 39.0721 55.1137 38.9818 54.8448 38.8012C54.4864 38.5302 54.2175 38.1689 53.9487 37.898C52.0668 35.5496 50.1848 33.111 48.3029 30.7626C46.6898 28.6853 44.7183 26.5176 42.1194 26.5176C41.2233 26.5176 40.3271 26.8789 39.5206 27.1498C38.4452 27.6014 37.101 28.1433 36.8321 29.3175C36.5633 30.2207 37.101 31.2142 37.7283 31.9368C38.4452 32.6594 39.2518 33.111 39.9687 33.7432C41.4921 35.098 42.3883 37.1754 44.2702 37.9883C44.8975 38.2592 45.5248 38.4399 46.0625 38.6205C47.4068 39.0721 48.4821 40.0656 49.2887 41.2398C49.5575 41.6914 49.8264 42.2333 50.1848 42.5946C50.5433 42.9559 51.1706 43.1365 51.6187 42.8656C51.7979 42.7753 51.9772 42.5946 52.1564 42.414C53.0525 41.6914 54.576 42.7753 54.3072 43.8591C54.9345 43.5881 55.6514 43.3172 56.3683 43.4075C57.0852 43.4978 57.8022 43.9494 57.8918 44.672C57.8918 45.0333 57.8022 45.3042 57.8022 45.6655C57.5333 47.0203 57.8022 48.3751 57.8918 49.7299C57.9814 52.1686 57.4437 54.6072 56.906 57.0459C56.8164 57.5878 56.6372 58.1297 56.5475 58.6716C56.3683 59.5749 56.1891 60.4781 56.5475 61.2909C57.3541 62.9167 59.8633 62.9167 60.7595 64.4522H64.5233V38.1689Z" fill="white"/>
</svg>
