<svg width="76" height="76" viewBox="0 0 76 76" fill="none" xmlns="http://www.w3.org/2000/svg">
<path d="M38.8667 0.769924L38.0928 0L19.486 18.9988L20.2599 19.7687L38.8667 0.769924Z" fill="#2B318C"/>
<path d="M39.6294 1.55313L38.8555 0.783203L20.2487 19.782L21.0226 20.5519L39.6294 1.55313Z" fill="white"/>
<path d="M40.3911 2.225L39.6172 1.45508L21.0104 20.4539L21.7843 21.2238L40.3911 2.225Z" fill="#2B318C"/>
<path d="M41.1528 3.00821L40.3789 2.23828L21.7721 21.2371L22.546 22.007L41.1528 3.00821Z" fill="white"/>
<path d="M41.9155 3.79141L41.1416 3.02148L22.5348 22.0203L23.3087 22.7902L41.9155 3.79141Z" fill="#2B318C"/>
<path d="M42.6772 4.57461L41.9033 3.80469L23.2965 22.8035L24.0704 23.5734L42.6772 4.57461Z" fill="white"/>
<path d="M43.4946 5.30313L42.7207 4.5332L24.1139 23.532L24.8878 24.3019L43.4946 5.30313Z" fill="#2B318C"/>
<path d="M44.2563 6.08633L43.4824 5.31641L24.8756 24.3152L25.6495 25.0851L44.2563 6.08633Z" fill="white"/>
<path d="M45.019 6.86954L44.2451 6.09961L25.6383 25.0984L26.4122 25.8683L45.019 6.86954Z" fill="#2B318C"/>
<path d="M45.7808 7.65274L45.0068 6.88281L26.4 25.8816L27.1739 26.6515L45.7808 7.65274Z" fill="white"/>
<path d="M46.5435 8.43497L45.7695 7.66504L27.1627 26.6638L27.9366 27.4337L46.5435 8.43497Z" fill="#2B318C"/>
<path d="M47.3589 9.1625L46.585 8.39258L27.9781 27.3914L28.7521 28.1613L47.3589 9.1625Z" fill="white"/>
<path d="M48.0659 9.89102L47.292 9.12109L28.6852 28.1199L29.4591 28.8898L48.0659 9.89102Z" fill="#2B318C"/>
<path d="M48.8286 10.6742L48.0547 9.9043L29.4479 28.9031L30.2218 29.673L48.8286 10.6742Z" fill="white"/>
<path d="M49.5903 11.4574L48.8164 10.6875L30.2096 29.6863L30.9835 30.4562L49.5903 11.4574Z" fill="#2B318C"/>
<path d="M50.4077 12.184L49.6338 11.4141L31.027 30.4128L31.8009 31.1828L50.4077 12.184Z" fill="white"/>
<path d="M51.1694 12.9682L50.3955 12.1982L31.7887 31.197L32.5626 31.9669L51.1694 12.9682Z" fill="#2B318C"/>
<path d="M51.9321 13.7504L51.1582 12.9805L32.5514 31.9792L33.3253 32.7492L51.9321 13.7504Z" fill="white"/>
<path d="M52.6938 14.5336L51.9199 13.7637L33.3131 32.7624L34.087 33.5324L52.6938 14.5336Z" fill="#2B318C"/>
<path d="M53.5112 15.2621L52.7373 14.4922L34.1305 33.491L34.9044 34.2609L53.5112 15.2621Z" fill="white"/>
<path d="M54.2729 16.0453L53.499 15.2754L34.8922 34.2742L35.6661 35.0441L54.2729 16.0453Z" fill="#2B318C"/>
<path d="M36.5415 75.2301L37.3154 76L55.9222 57.0012L55.1483 56.2313L36.5415 75.2301Z" fill="#2B318C"/>
<path d="M35.8208 74.4273L36.5947 75.1973L55.2015 56.1985L54.4276 55.4286L35.8208 74.4273Z" fill="white"/>
<path d="M35.0444 73.6803L35.8184 74.4502L54.4252 55.4514L53.6513 54.6815L35.0444 73.6803Z" fill="#2B318C"/>
<path d="M34.2134 72.8785L34.9873 73.6484L53.5941 54.6497L52.8202 53.8797L34.2134 72.8785Z" fill="white"/>
<path d="M33.437 72.1314L34.2109 72.9014L52.8177 53.9026L52.0438 53.1327L33.437 72.1314Z" fill="#2B318C"/>
<path d="M32.6616 71.3844L33.4355 72.1543L52.0424 53.1555L51.2684 52.3856L32.6616 71.3844Z" fill="white"/>
<path d="M31.9399 70.5816L32.7139 71.3516L51.3207 52.3528L50.5468 51.5829L31.9399 70.5816Z" fill="#2B318C"/>
<path d="M31.1646 69.8346L31.9385 70.6045L50.5453 51.6057L49.7714 50.8358L31.1646 69.8346Z" fill="white"/>
<path d="M30.3882 69.0875L31.1621 69.8574L49.7689 50.8587L48.995 50.0887L30.3882 69.0875Z" fill="#2B318C"/>
<path d="M29.6118 68.3404L30.3857 69.1104L48.9926 50.1116L48.2186 49.3417L29.6118 68.3404Z" fill="white"/>
<path d="M28.8911 67.5377L29.665 68.3076L48.2719 49.3088L47.4979 48.5389L28.8911 67.5377Z" fill="#2B318C"/>
<path d="M28.1157 66.7906L28.8896 67.5605L47.4965 48.5618L46.7225 47.7918L28.1157 66.7906Z" fill="white"/>
<path d="M27.3394 66.0436L28.1133 66.8135L46.7201 47.8147L45.9462 47.0448L27.3394 66.0436Z" fill="#2B318C"/>
<path d="M26.5083 65.2408L27.2822 66.0107L45.889 47.012L45.1151 46.242L26.5083 65.2408Z" fill="white"/>
<path d="M25.7866 64.4381L26.5605 65.208L45.1674 46.2092L44.3934 45.4393L25.7866 64.4381Z" fill="#2B318C"/>
<path d="M25.0103 63.691L25.7842 64.4609L44.391 45.4622L43.6171 44.6922L25.0103 63.691Z" fill="white"/>
<path d="M24.2349 62.9449L25.0088 63.7148L43.6156 44.7161L42.8417 43.9461L24.2349 62.9449Z" fill="#2B318C"/>
<path d="M23.4595 62.1969L24.2334 62.9668L42.8402 43.968L42.0663 43.1981L23.4595 62.1969Z" fill="white"/>
<path d="M22.6831 61.4508L23.457 62.2207L42.0638 43.2219L41.2899 42.452L22.6831 61.4508Z" fill="#2B318C"/>
<path d="M21.9614 60.6471L22.7354 61.417L41.3422 42.4182L40.5682 41.6483L21.9614 60.6471Z" fill="white"/>
<path d="M21.1851 59.9L21.959 60.6699L40.5658 41.6711L39.7919 40.9012L21.1851 59.9Z" fill="#2B318C"/>
<path d="M38.8667 0.769924L38.0928 0L19.486 18.9988L20.2599 19.7687L38.8667 0.769924Z" fill="#2B318C"/>
<path d="M39.6294 1.55313L38.8555 0.783203L20.2487 19.782L21.0226 20.5519L39.6294 1.55313Z" fill="white"/>
<path d="M40.3911 2.225L39.6172 1.45508L21.0104 20.4539L21.7843 21.2238L40.3911 2.225Z" fill="#2B318C"/>
<path d="M41.1528 3.00821L40.3789 2.23828L21.7721 21.2371L22.546 22.007L41.1528 3.00821Z" fill="white"/>
<path d="M41.9155 3.79141L41.1416 3.02148L22.5348 22.0203L23.3087 22.7902L41.9155 3.79141Z" fill="#2B318C"/>
<path d="M42.6772 4.57461L41.9033 3.80469L23.2965 22.8035L24.0704 23.5734L42.6772 4.57461Z" fill="white"/>
<path d="M43.4946 5.30313L42.7207 4.5332L24.1139 23.532L24.8878 24.3019L43.4946 5.30313Z" fill="#2B318C"/>
<path d="M44.2563 6.08633L43.4824 5.31641L24.8756 24.3152L25.6495 25.0851L44.2563 6.08633Z" fill="white"/>
<path d="M45.019 6.86954L44.2451 6.09961L25.6383 25.0984L26.4122 25.8683L45.019 6.86954Z" fill="#2B318C"/>
<path d="M45.7808 7.65274L45.0068 6.88281L26.4 25.8816L27.1739 26.6515L45.7808 7.65274Z" fill="white"/>
<path d="M46.5435 8.43497L45.7695 7.66504L27.1627 26.6638L27.9366 27.4337L46.5435 8.43497Z" fill="#2B318C"/>
<path d="M47.3589 9.1625L46.585 8.39258L27.9781 27.3914L28.7521 28.1613L47.3589 9.1625Z" fill="white"/>
<path d="M48.0659 9.89102L47.292 9.12109L28.6852 28.1199L29.4591 28.8898L48.0659 9.89102Z" fill="#2B318C"/>
<path d="M48.8286 10.6742L48.0547 9.9043L29.4479 28.9031L30.2218 29.673L48.8286 10.6742Z" fill="white"/>
<path d="M49.5903 11.4574L48.8164 10.6875L30.2096 29.6863L30.9835 30.4562L49.5903 11.4574Z" fill="#2B318C"/>
<path d="M50.4077 12.184L49.6338 11.4141L31.027 30.4128L31.8009 31.1828L50.4077 12.184Z" fill="white"/>
<path d="M51.1694 12.9682L50.3955 12.1982L31.7887 31.197L32.5626 31.9669L51.1694 12.9682Z" fill="#2B318C"/>
<path d="M51.9321 13.7504L51.1582 12.9805L32.5514 31.9792L33.3253 32.7492L51.9321 13.7504Z" fill="white"/>
<path d="M52.6938 14.5336L51.9199 13.7637L33.3131 32.7624L34.087 33.5324L52.6938 14.5336Z" fill="#2B318C"/>
<path d="M53.5112 15.2621L52.7373 14.4922L34.1305 33.491L34.9044 34.2609L53.5112 15.2621Z" fill="white"/>
<path d="M54.2729 16.0453L53.499 15.2754L34.8922 34.2742L35.6661 35.0441L54.2729 16.0453Z" fill="#2B318C"/>
<path d="M36.5415 75.2301L37.3154 76L55.9222 57.0012L55.1483 56.2313L36.5415 75.2301Z" fill="#2B318C"/>
<path d="M35.8208 74.4273L36.5947 75.1973L55.2015 56.1985L54.4276 55.4286L35.8208 74.4273Z" fill="white"/>
<path d="M35.0444 73.6803L35.8184 74.4502L54.4252 55.4514L53.6513 54.6815L35.0444 73.6803Z" fill="#2B318C"/>
<path d="M34.2134 72.8785L34.9873 73.6484L53.5941 54.6497L52.8202 53.8797L34.2134 72.8785Z" fill="white"/>
<path d="M33.437 72.1314L34.2109 72.9014L52.8177 53.9026L52.0438 53.1327L33.437 72.1314Z" fill="#2B318C"/>
<path d="M32.6616 71.3844L33.4355 72.1543L52.0424 53.1555L51.2684 52.3856L32.6616 71.3844Z" fill="white"/>
<path d="M31.9399 70.5816L32.7139 71.3516L51.3207 52.3528L50.5468 51.5829L31.9399 70.5816Z" fill="#2B318C"/>
<path d="M31.1646 69.8346L31.9385 70.6045L50.5453 51.6057L49.7714 50.8358L31.1646 69.8346Z" fill="white"/>
<path d="M30.3882 69.0875L31.1621 69.8574L49.7689 50.8587L48.995 50.0887L30.3882 69.0875Z" fill="#2B318C"/>
<path d="M29.6118 68.3404L30.3857 69.1104L48.9926 50.1116L48.2186 49.3417L29.6118 68.3404Z" fill="white"/>
<path d="M28.8911 67.5377L29.665 68.3076L48.2719 49.3088L47.4979 48.5389L28.8911 67.5377Z" fill="#2B318C"/>
<path d="M28.1157 66.7906L28.8896 67.5605L47.4965 48.5618L46.7225 47.7918L28.1157 66.7906Z" fill="white"/>
<path d="M27.3394 66.0436L28.1133 66.8135L46.7201 47.8147L45.9462 47.0448L27.3394 66.0436Z" fill="#2B318C"/>
<path d="M26.5083 65.2408L27.2822 66.0107L45.889 47.012L45.1151 46.242L26.5083 65.2408Z" fill="white"/>
<path d="M25.7866 64.4381L26.5605 65.208L45.1674 46.2092L44.3934 45.4393L25.7866 64.4381Z" fill="#2B318C"/>
<path d="M25.0103 63.691L25.7842 64.4609L44.391 45.4622L43.6171 44.6922L25.0103 63.691Z" fill="white"/>
<path d="M24.2349 62.9449L25.0088 63.7148L43.6156 44.7161L42.8417 43.9461L24.2349 62.9449Z" fill="#2B318C"/>
<path d="M23.4595 62.1969L24.2334 62.9668L42.8402 43.968L42.0663 43.1981L23.4595 62.1969Z" fill="white"/>
<path d="M22.6831 61.4508L23.457 62.2207L42.0638 43.2219L41.2899 42.452L22.6831 61.4508Z" fill="#2B318C"/>
<path d="M21.9614 60.6471L22.7354 61.417L41.3422 42.4182L40.5682 41.6483L21.9614 60.6471Z" fill="white"/>
<path d="M21.1851 59.9L21.959 60.6699L40.5658 41.6711L39.7919 40.9012L21.1851 59.9Z" fill="#2B318C"/>
<path d="M74.6423 39.1628L75.4062 38.3828L56.5558 19.6296L55.7919 20.4096L74.6423 39.1628Z" fill="#2B318C"/>
<path d="M73.8904 39.9206L74.6543 39.1406L55.8038 20.3874L55.0399 21.1675L73.8904 39.9206Z" fill="white"/>
<path d="M73.1384 40.6765L73.9023 39.8965L55.0519 21.1433L54.2879 21.9233L73.1384 40.6765Z" fill="#2B318C"/>
<path d="M72.3855 41.4343L73.1494 40.6543L54.2989 21.9011L53.535 22.6811L72.3855 41.4343Z" fill="white"/>
<path d="M71.5789 42.2468L72.3428 41.4668L53.4923 22.7136L52.7284 23.4936L71.5789 42.2468Z" fill="#2B318C"/>
<path d="M70.8269 43.0046L71.5908 42.2246L52.7403 23.4714L51.9764 24.2514L70.8269 43.0046Z" fill="white"/>
<path d="M70.075 43.7605L70.8389 42.9805L51.9884 24.2273L51.2245 25.0073L70.075 43.7605Z" fill="#2B318C"/>
<path d="M69.322 44.5183L70.0859 43.7383L51.2354 24.9851L50.4715 25.7651L69.322 44.5183Z" fill="white"/>
<path d="M68.5701 45.3855L69.334 44.6055L50.4835 25.8523L49.7196 26.6323L68.5701 45.3855Z" fill="#2B318C"/>
<path d="M67.8181 46.1433L68.582 45.3633L49.7315 26.6101L48.9676 27.3901L67.8181 46.1433Z" fill="white"/>
<path d="M67.0662 46.9001L67.8301 46.1201L48.9796 27.3669L48.2157 28.1469L67.0662 46.9001Z" fill="#2B318C"/>
<path d="M66.3132 47.657L67.0771 46.877L48.2267 28.1238L47.4627 28.9038L66.3132 47.657Z" fill="white"/>
<path d="M65.5613 48.4138L66.3252 47.6338L47.4747 28.8806L46.7108 29.6606L65.5613 48.4138Z" fill="#2B318C"/>
<path d="M64.7546 49.2273L65.5186 48.4473L46.6681 29.6941L45.9041 30.4741L64.7546 49.2273Z" fill="white"/>
<path d="M64.0017 49.9831L64.7656 49.2031L45.9151 30.4499L45.1512 31.23L64.0017 49.9831Z" fill="#2B318C"/>
<path d="M63.2498 50.7409L64.0137 49.9609L45.1632 31.2078L44.3993 31.9878L63.2498 50.7409Z" fill="white"/>
<path d="M62.4978 51.4978L63.2617 50.7178L44.4112 31.9646L43.6473 32.7446L62.4978 51.4978Z" fill="#2B318C"/>
<path d="M61.6912 52.3113L62.4551 51.5312L43.6046 32.7781L42.8407 33.5581L61.6912 52.3113Z" fill="white"/>
<path d="M60.9939 53.1228L61.7578 52.3428L42.9073 33.5896L42.1434 34.3696L60.9939 53.1228Z" fill="#2B318C"/>
<path d="M60.2419 53.8796L61.0059 53.0996L42.1554 34.3464L41.3914 35.1264L60.2419 53.8796Z" fill="white"/>
<path d="M59.489 54.6374L60.2529 53.8574L41.4024 35.1042L40.6385 35.8842L59.489 54.6374Z" fill="#2B318C"/>
<path d="M0.763916 36.8186L0 37.5986L18.8505 56.3518L19.6144 55.5718L0.763916 36.8186Z" fill="#2B318C"/>
<path d="M1.52954 36.0257L0.765625 36.8057L19.6161 55.5588L20.38 54.7788L1.52954 36.0257Z" fill="white"/>
<path d="M2.29517 35.2317L1.53125 36.0117L20.3817 54.7649L21.1457 53.9849L2.29517 35.2317Z" fill="#2B318C"/>
<path d="M3.00806 34.4954L2.24414 35.2754L21.0946 54.0286L21.8585 53.2486L3.00806 34.4954Z" fill="white"/>
<path d="M3.77368 33.7014L3.00977 34.4814L21.8603 53.2346L22.6242 52.4546L3.77368 33.7014Z" fill="#2B318C"/>
<path d="M4.53931 32.9085L3.77539 33.6885L22.6259 52.4417L23.3898 51.6616L4.53931 32.9085Z" fill="white"/>
<path d="M5.30591 32.1155L4.54199 32.8955L23.3925 51.6487L24.1564 50.8687L5.30591 32.1155Z" fill="#2B318C"/>
<path d="M6.1272 31.3772L5.36328 32.1572L24.2138 50.9104L24.9777 50.1304L6.1272 31.3772Z" fill="white"/>
<path d="M6.83813 30.6399L6.07422 31.4199L24.9247 50.1731L25.6886 49.3931L6.83813 30.6399Z" fill="#2B318C"/>
<path d="M7.60474 29.8469L6.84082 30.627L25.6913 49.3801L26.4552 48.6001L7.60474 29.8469Z" fill="white"/>
<path d="M8.37036 29.053L7.60645 29.833L26.4569 48.5862L27.2208 47.8062L8.37036 29.053Z" fill="#2B318C"/>
<path d="M9.13599 28.26L8.37207 29.04L27.2226 47.7932L27.9865 47.0132L9.13599 28.26Z" fill="white"/>
<path d="M9.8479 27.5227L9.08398 28.3027L27.9345 47.0559L28.6984 46.2759L9.8479 27.5227Z" fill="#2B318C"/>
<path d="M10.6135 26.7298L9.84961 27.5098L28.7001 46.2629L29.464 45.4829L10.6135 26.7298Z" fill="white"/>
<path d="M11.3801 25.9368L10.6162 26.7168L29.4667 45.47L30.2306 44.69L11.3801 25.9368Z" fill="#2B318C"/>
<path d="M12.1458 25.1428L11.3818 25.9229L30.2323 44.676L30.9962 43.896L12.1458 25.1428Z" fill="white"/>
<path d="M12.9114 24.3499L12.1475 25.1299L30.9979 43.8831L31.7619 43.1031L12.9114 24.3499Z" fill="#2B318C"/>
<path d="M13.679 23.6673L12.915 24.4473L31.7655 43.2004L32.5294 42.4204L13.679 23.6673Z" fill="white"/>
<path d="M14.4446 22.8743L13.6807 23.6543L32.5312 42.4075L33.2951 41.6275L14.4446 22.8743Z" fill="#2B318C"/>
<path d="M15.2102 22.0813L14.4463 22.8613L33.2968 41.6145L34.0607 40.8345L15.2102 22.0813Z" fill="white"/>
<path d="M15.9768 21.2884L15.2129 22.0684L34.0634 40.8215L34.8273 40.0415L15.9768 21.2884Z" fill="#2B318C"/>
<path d="M55.9259 19.2266H19.3418V56.0984H55.9259V19.2266Z" fill="#2B318C"/>
<path d="M52.0419 57.1947L51.7312 56.6467C51.4981 56.3336 50.9544 56.0204 50.4107 55.7856C49.5563 55.3942 48.5466 54.9245 48.0805 53.8285C47.5368 52.7325 47.8475 51.5582 48.0028 50.7754L48.3135 49.3663C48.7796 47.4092 49.1679 45.2955 49.0903 43.3384C49.0903 43.0253 49.0903 42.7121 49.0126 42.399C48.9349 41.4596 48.8573 40.5202 49.0903 39.5025V39.3459C49.0903 39.2676 49.1679 39.111 49.1679 39.0328C49.1679 39.0328 49.0126 38.9545 48.8573 38.8762H48.7796C48.3912 38.8762 48.0028 39.0328 47.6145 39.1893C47.6145 39.1893 46.6047 39.8939 46.061 39.5807C45.595 39.2676 46.1387 37.9368 46.1387 37.9368C46.1387 37.8585 46.061 37.8585 45.9833 37.7802C45.9833 37.7802 45.9833 37.7802 45.9057 37.8585C45.828 37.9368 45.6727 38.0933 45.4396 38.2499C45.1289 38.4065 44.8182 38.4848 44.5076 38.4848C43.9638 38.4848 43.3425 38.2499 42.8764 37.8585C42.488 37.5454 42.255 37.1539 42.022 36.7625C41.9443 36.6842 41.9443 36.6059 41.8667 36.5277C41.323 35.6665 40.5462 35.0403 39.6141 34.7271C39.4588 34.6488 39.2258 34.5706 39.0704 34.5706C38.6821 34.4923 38.3714 34.3357 37.983 34.1791C36.7402 33.6311 35.9635 32.5352 35.1868 31.674C34.7984 31.2043 34.41 30.6563 33.944 30.2649C33.711 30.0301 33.4003 29.8735 33.1673 29.6387C32.7789 29.3255 32.3129 29.0124 31.9245 28.621C30.9924 27.6033 30.5264 26.3507 30.8371 25.2547C31.3031 23.6108 33.0119 22.9062 33.8663 22.5931C34.7207 22.2799 35.5751 21.9668 36.5072 21.9668H36.6626C39.2258 21.9668 41.0899 23.9239 42.7987 26.0376L47.6922 32.222C47.8475 32.4569 48.0805 32.6917 48.2359 32.8483C48.3912 32.9266 48.5466 33.0832 48.7796 33.1614L52.1195 34.8837L52.1972 34.7271C52.7409 33.2397 54.2167 32.222 55.9255 32.1437L57.0906 32.0655V57.3513H52.0419V57.1947Z" stroke="white" stroke-miterlimit="10"/>
<path d="M55.9248 33.083C54.7597 33.1613 53.5946 33.8659 53.2063 34.9619C53.0509 35.275 52.9733 35.7447 52.6626 35.9013C52.3519 36.0578 51.9635 35.9013 51.5751 35.7447C50.4877 35.1967 49.3226 34.6487 48.2352 34.0224C48.0022 33.8659 47.7691 33.7876 47.5361 33.631C47.2254 33.3962 46.9924 33.083 46.7594 32.8482C45.1283 30.8128 43.4971 28.6991 41.866 26.6637C40.4679 24.8632 38.7591 22.9844 36.5065 22.9844C35.7298 22.9844 34.9531 23.2975 34.254 23.5324C33.3219 23.9238 32.1568 24.3935 31.9238 25.4112C31.6908 26.194 32.1568 27.0552 32.7005 27.6814C33.3219 28.3077 34.021 28.6991 34.6424 29.2471C35.9628 30.4214 36.7396 32.2219 38.3707 32.9265C38.9144 33.1613 39.4581 33.3179 39.9242 33.4745C41.0893 33.8659 42.0213 34.727 42.7204 35.7447C42.9534 36.1361 43.1864 36.6058 43.4971 36.919C43.8078 37.2321 44.3515 37.3887 44.7399 37.1538C44.8952 37.0755 45.0506 36.919 45.2059 36.7624C45.9827 36.1361 47.3031 37.0755 47.0701 38.0149C47.6138 37.7801 48.2352 37.5452 48.8566 37.6235C49.478 37.7018 50.0993 38.0932 50.177 38.7195C50.177 39.0326 50.0993 39.2675 50.0993 39.5806C49.8663 40.7549 50.0993 41.9292 50.177 43.1034C50.2547 45.2171 49.7887 47.3308 49.3226 49.4444C49.2449 49.9141 49.0896 50.3839 49.0119 50.8536C48.8566 51.6364 48.7012 52.4192 49.0119 53.1238C49.711 54.5329 51.8858 54.5329 52.6626 55.8637H55.9248V33.083Z" fill="white"/>
</svg>
